<svg xmlns="http://www.w3.org/2000/svg" xmlns:xlink="http://www.w3.org/1999/xlink" width="1500" zoomAndPan="magnify" viewBox="0 0 1125 374.999991" height="500" preserveAspectRatio="xMidYMid meet" version="1.2"><defs/><g id="ee3c61eb0b"><g style="fill:#ffffff;fill-opacity:1;"><g transform="translate(27.503918, 256.874983)"><path style="stroke:none" d="M 7.40625 -69.796875 C 7.40625 -83.398438 10.570312 -95.597656 16.90625 -106.390625 C 23.238281 -117.191406 31.835938 -125.625 42.703125 -131.6875 C 53.566406 -137.757812 65.46875 -140.796875 78.40625 -140.796875 C 93.195312 -140.796875 106.359375 -137.160156 117.890625 -129.890625 C 129.429688 -122.628906 137.800781 -112.332031 143 -99 L 115.59375 -99 C 112 -106.332031 107 -111.796875 100.59375 -115.390625 C 94.195312 -118.992188 86.800781 -120.796875 78.40625 -120.796875 C 69.195312 -120.796875 60.992188 -118.726562 53.796875 -114.59375 C 46.597656 -110.46875 40.960938 -104.535156 36.890625 -96.796875 C 32.828125 -89.066406 30.796875 -80.066406 30.796875 -69.796875 C 30.796875 -59.535156 32.828125 -50.535156 36.890625 -42.796875 C 40.960938 -35.066406 46.597656 -29.097656 53.796875 -24.890625 C 60.992188 -20.691406 69.195312 -18.59375 78.40625 -18.59375 C 86.800781 -18.59375 94.195312 -20.394531 100.59375 -24 C 107 -27.601562 112 -33.070312 115.59375 -40.40625 L 143 -40.40625 C 137.800781 -27.070312 129.429688 -16.800781 117.890625 -9.59375 C 106.359375 -2.394531 93.195312 1.203125 78.40625 1.203125 C 65.332031 1.203125 53.394531 -1.828125 42.59375 -7.890625 C 31.800781 -13.960938 23.238281 -22.398438 16.90625 -33.203125 C 10.570312 -44.003906 7.40625 -56.203125 7.40625 -69.796875 Z M 7.40625 -69.796875 "/></g></g><g style="fill:#ffffff;fill-opacity:1;"><g transform="translate(182.099765, 256.874983)"><path style="stroke:none" d="M 7.40625 -55.59375 C 7.40625 -66.664062 9.703125 -76.46875 14.296875 -85 C 18.898438 -93.53125 25.164062 -100.160156 33.09375 -104.890625 C 41.03125 -109.628906 49.800781 -112 59.40625 -112 C 68.070312 -112 75.632812 -110.296875 82.09375 -106.890625 C 88.5625 -103.492188 93.726562 -99.265625 97.59375 -94.203125 L 97.59375 -110.203125 L 120.59375 -110.203125 L 120.59375 0 L 97.59375 0 L 97.59375 -16.40625 C 93.726562 -11.195312 88.460938 -6.859375 81.796875 -3.390625 C 75.128906 0.0664062 67.53125 1.796875 59 1.796875 C 49.53125 1.796875 40.863281 -0.632812 33 -5.5 C 25.132812 -10.363281 18.898438 -17.160156 14.296875 -25.890625 C 9.703125 -34.628906 7.40625 -44.53125 7.40625 -55.59375 Z M 97.59375 -55.203125 C 97.59375 -62.796875 96.023438 -69.394531 92.890625 -75 C 89.765625 -80.601562 85.664062 -84.867188 80.59375 -87.796875 C 75.53125 -90.734375 70.066406 -92.203125 64.203125 -92.203125 C 58.335938 -92.203125 52.867188 -90.765625 47.796875 -87.890625 C 42.734375 -85.023438 38.632812 -80.828125 35.5 -75.296875 C 32.363281 -69.765625 30.796875 -63.195312 30.796875 -55.59375 C 30.796875 -48 32.363281 -41.332031 35.5 -35.59375 C 38.632812 -29.863281 42.765625 -25.5 47.890625 -22.5 C 53.023438 -19.5 58.460938 -18 64.203125 -18 C 70.066406 -18 75.53125 -19.460938 80.59375 -22.390625 C 85.664062 -25.328125 89.765625 -29.628906 92.890625 -35.296875 C 96.023438 -40.960938 97.59375 -47.597656 97.59375 -55.203125 Z M 97.59375 -55.203125 "/></g></g><g style="fill:#ffffff;fill-opacity:1;"><g transform="translate(317.696134, 256.874983)"><path style="stroke:none" d="M 37.796875 -94 C 41.660156 -99.0625 46.925781 -103.328125 53.59375 -106.796875 C 60.257812 -110.265625 67.796875 -112 76.203125 -112 C 85.796875 -112 94.5625 -109.628906 102.5 -104.890625 C 110.4375 -100.160156 116.671875 -93.53125 121.203125 -85 C 125.734375 -76.46875 128 -66.664062 128 -55.59375 C 128 -44.53125 125.734375 -34.628906 121.203125 -25.890625 C 116.671875 -17.160156 110.4375 -10.363281 102.5 -5.5 C 94.5625 -0.632812 85.796875 1.796875 76.203125 1.796875 C 67.796875 1.796875 60.328125 0.0976562 53.796875 -3.296875 C 47.265625 -6.703125 41.929688 -10.9375 37.796875 -16 L 37.796875 52.40625 L 15 52.40625 L 15 -110.203125 L 37.796875 -110.203125 Z M 104.796875 -55.59375 C 104.796875 -63.195312 103.226562 -69.765625 100.09375 -75.296875 C 96.96875 -80.828125 92.835938 -85.023438 87.703125 -87.890625 C 82.566406 -90.765625 77.066406 -92.203125 71.203125 -92.203125 C 65.460938 -92.203125 60.023438 -90.734375 54.890625 -87.796875 C 49.765625 -84.867188 45.632812 -80.601562 42.5 -75 C 39.363281 -69.394531 37.796875 -62.796875 37.796875 -55.203125 C 37.796875 -47.597656 39.363281 -40.960938 42.5 -35.296875 C 45.632812 -29.628906 49.765625 -25.328125 54.890625 -22.390625 C 60.023438 -19.460938 65.460938 -18 71.203125 -18 C 77.066406 -18 82.566406 -19.5 87.703125 -22.5 C 92.835938 -25.5 96.96875 -29.863281 100.09375 -35.59375 C 103.226562 -41.332031 104.796875 -48 104.796875 -55.59375 Z M 104.796875 -55.59375 "/></g></g><g style="fill:#8d8d8d;fill-opacity:1;"><g transform="translate(453.292956, 256.874983)"><path style="stroke:none" d="M 112.40625 24 L 94.40625 -0.203125 C 89.070312 0.867188 83.867188 1.40625 78.796875 1.40625 C 65.597656 1.40625 53.5 -1.660156 42.5 -7.796875 C 31.5 -13.929688 22.765625 -22.5 16.296875 -33.5 C 9.828125 -44.5 6.59375 -56.863281 6.59375 -70.59375 C 6.59375 -84.332031 9.828125 -96.664062 16.296875 -107.59375 C 22.765625 -118.53125 31.5 -127.066406 42.5 -133.203125 C 53.5 -139.335938 65.597656 -142.40625 78.796875 -142.40625 C 91.992188 -142.40625 104.09375 -139.335938 115.09375 -133.203125 C 126.09375 -127.066406 134.757812 -118.53125 141.09375 -107.59375 C 147.425781 -96.664062 150.59375 -84.332031 150.59375 -70.59375 C 150.59375 -58.59375 148.160156 -47.625 143.296875 -37.6875 C 138.429688 -27.757812 131.664062 -19.53125 123 -13 L 153.796875 24 Z M 41.59375 -70.59375 C 41.59375 -58.195312 44.957031 -48.296875 51.6875 -40.890625 C 58.425781 -33.492188 67.460938 -29.796875 78.796875 -29.796875 C 89.992188 -29.796875 98.957031 -33.53125 105.6875 -41 C 112.425781 -48.46875 115.796875 -58.332031 115.796875 -70.59375 C 115.796875 -83 112.425781 -92.898438 105.6875 -100.296875 C 98.957031 -107.703125 89.992188 -111.40625 78.796875 -111.40625 C 67.460938 -111.40625 58.425781 -107.738281 51.6875 -100.40625 C 44.957031 -93.070312 41.59375 -83.132812 41.59375 -70.59375 Z M 41.59375 -70.59375 "/></g></g><g style="fill:#8d8d8d;fill-opacity:1;"><g transform="translate(610.888743, 256.874983)"><path style="stroke:none" d="M 122.59375 -111.59375 L 122.59375 0 L 88.40625 0 L 88.40625 -15.203125 C 84.9375 -10.265625 80.234375 -6.296875 74.296875 -3.296875 C 68.367188 -0.296875 61.800781 1.203125 54.59375 1.203125 C 46.0625 1.203125 38.53125 -0.695312 32 -4.5 C 25.46875 -8.300781 20.398438 -13.800781 16.796875 -21 C 13.203125 -28.195312 11.40625 -36.664062 11.40625 -46.40625 L 11.40625 -111.59375 L 45.40625 -111.59375 L 45.40625 -51 C 45.40625 -43.53125 47.335938 -37.726562 51.203125 -33.59375 C 55.066406 -29.46875 60.265625 -27.40625 66.796875 -27.40625 C 73.460938 -27.40625 78.726562 -29.46875 82.59375 -33.59375 C 86.46875 -37.726562 88.40625 -43.53125 88.40625 -51 L 88.40625 -111.59375 Z M 122.59375 -111.59375 "/></g></g><g style="fill:#8d8d8d;fill-opacity:1;"><g transform="translate(745.685132, 256.874983)"><path style="stroke:none" d="M 5.59375 -56 C 5.59375 -67.46875 7.757812 -77.535156 12.09375 -86.203125 C 16.425781 -94.867188 22.328125 -101.535156 29.796875 -106.203125 C 37.265625 -110.867188 45.597656 -113.203125 54.796875 -113.203125 C 62.660156 -113.203125 69.5625 -111.597656 75.5 -108.390625 C 81.4375 -105.191406 86.003906 -100.992188 89.203125 -95.796875 L 89.203125 -111.59375 L 123.40625 -111.59375 L 123.40625 0 L 89.203125 0 L 89.203125 -15.796875 C 85.867188 -10.597656 81.234375 -6.398438 75.296875 -3.203125 C 69.367188 -0.00390625 62.46875 1.59375 54.59375 1.59375 C 45.53125 1.59375 37.265625 -0.769531 29.796875 -5.5 C 22.328125 -10.226562 16.425781 -16.957031 12.09375 -25.6875 C 7.757812 -34.425781 5.59375 -44.53125 5.59375 -56 Z M 89.203125 -55.796875 C 89.203125 -64.328125 86.832031 -71.0625 82.09375 -76 C 77.363281 -80.9375 71.597656 -83.40625 64.796875 -83.40625 C 57.992188 -83.40625 52.226562 -80.96875 47.5 -76.09375 C 42.769531 -71.226562 40.40625 -64.53125 40.40625 -56 C 40.40625 -47.46875 42.769531 -40.703125 47.5 -35.703125 C 52.226562 -30.703125 57.992188 -28.203125 64.796875 -28.203125 C 71.597656 -28.203125 77.363281 -30.664062 82.09375 -35.59375 C 86.832031 -40.53125 89.203125 -47.265625 89.203125 -55.796875 Z M 89.203125 -55.796875 "/></g></g><g style="fill:#8d8d8d;fill-opacity:1;"><g transform="translate(881.481496, 256.874983)"><path style="stroke:none" d="M 80.40625 -112.796875 C 93.46875 -112.796875 103.898438 -108.5625 111.703125 -100.09375 C 119.503906 -91.632812 123.40625 -80.003906 123.40625 -65.203125 L 123.40625 0 L 89.40625 0 L 89.40625 -60.59375 C 89.40625 -68.0625 87.46875 -73.863281 83.59375 -78 C 79.726562 -82.132812 74.53125 -84.203125 68 -84.203125 C 61.46875 -84.203125 56.265625 -82.132812 52.390625 -78 C 48.523438 -73.863281 46.59375 -68.0625 46.59375 -60.59375 L 46.59375 0 L 12.40625 0 L 12.40625 -111.59375 L 46.59375 -111.59375 L 46.59375 -96.796875 C 50.0625 -101.734375 54.726562 -105.632812 60.59375 -108.5 C 66.46875 -111.363281 73.070312 -112.796875 80.40625 -112.796875 Z M 80.40625 -112.796875 "/></g></g><g style="fill:#8d8d8d;fill-opacity:1;"><g transform="translate(1016.277922, 256.874983)"><path style="stroke:none" d="M 74.59375 -29 L 74.59375 0 L 57.203125 0 C 44.796875 0 35.125 -3.03125 28.1875 -9.09375 C 21.257812 -15.164062 17.796875 -25.066406 17.796875 -38.796875 L 17.796875 -83.203125 L 4.203125 -83.203125 L 4.203125 -111.59375 L 17.796875 -111.59375 L 17.796875 -138.796875 L 52 -138.796875 L 52 -111.59375 L 74.40625 -111.59375 L 74.40625 -83.203125 L 52 -83.203125 L 52 -38.40625 C 52 -35.070312 52.796875 -32.671875 54.390625 -31.203125 C 55.992188 -29.734375 58.664062 -29 62.40625 -29 Z M 74.59375 -29 "/></g></g></g></svg>